{
    "asset" : {
        "generator" : "Khronos glTF Blender I/O v0.9.36",
        "version" : "2.0"
    },
    "scene" : 0,
    "scenes" : [
        {
            "name" : "Scene",
            "nodes" : [
                0,
                1,
                2
            ]
        }
    ],
    "nodes" : [
        {
            "mesh" : 0,
            "name" : "Kiehl's.002",
            "rotation" : [
                0.7071068286895752,
                0,
                0,
                0.7071067094802856
            ],
            "translation" : [
                0,
                63.67540740966797,
                -4.794008731842041
            ]
        },
        {
            "mesh" : 1,
            "name" : "Kiehl's.000",
            "rotation" : [
                0.7071068286895752,
                0,
                0,
                0.7071067094802856
            ],
            "translation" : [
                6.121998310089111,
                63.67540740966797,
                -4.794008731842041
            ]
        },
        {
            "mesh" : 2,
            "name" : "Kiehl's.001",
            "rotation" : [
                0.7071068286895752,
                0,
                0,
                0.7071067094802856
            ],
            "translation" : [
                12.528496742248535,
                63.67540740966797,
                -4.794008731842041
            ]
        }
    ],
    "materials" : [
        {
            "doubleSided" : true,
            "name" : "13___Default22.002",
            "pbrMetallicRoughness" : {
                "baseColorTexture" : {
                    "index" : 0,
                    "texCoord" : 0
                },
                "metallicFactor" : 0,
                "roughnessFactor" : 0.7312580943107605
            }
        },
        {
            "doubleSided" : true,
            "name" : "07___Default.002",
            "pbrMetallicRoughness" : {
                "baseColorFactor" : [
                    0,
                    0,
                    0,
                    1
                ],
                "metallicFactor" : 0,
                "roughnessFactor" : 0.7788916826248169
            }
        },
        {
            "doubleSided" : true,
            "name" : "13___Default22.003",
            "pbrMetallicRoughness" : {
                "baseColorTexture" : {
                    "index" : 1,
                    "texCoord" : 0
                },
                "metallicFactor" : 0,
                "roughnessFactor" : 0.7312580943107605
            }
        },
        {
            "doubleSided" : true,
            "name" : "07___Default.003",
            "pbrMetallicRoughness" : {
                "baseColorFactor" : [
                    0,
                    0,
                    0,
                    1
                ],
                "metallicFactor" : 0,
                "roughnessFactor" : 0.7788916826248169
            }
        },
        {
            "doubleSided" : true,
            "name" : "13___Default22.004",
            "pbrMetallicRoughness" : {
                "baseColorTexture" : {
                    "index" : 2,
                    "texCoord" : 0
                },
                "metallicFactor" : 0,
                "roughnessFactor" : 0.7312580943107605
            }
        },
        {
            "doubleSided" : true,
            "name" : "07___Default.004",
            "pbrMetallicRoughness" : {
                "baseColorFactor" : [
                    0,
                    0,
                    0,
                    1
                ],
                "metallicFactor" : 0,
                "roughnessFactor" : 0.7788916826248169
            }
        }
    ],
    "meshes" : [
        {
            "name" : "Kiehl's.002",
            "primitives" : [
                {
                    "attributes" : {
                        "POSITION" : 0,
                        "NORMAL" : 1,
                        "TEXCOORD_0" : 2
                    },
                    "indices" : 3,
                    "material" : 0
                },
                {
                    "attributes" : {
                        "POSITION" : 4,
                        "NORMAL" : 5,
                        "TEXCOORD_0" : 6
                    },
                    "indices" : 7,
                    "material" : 1
                }
            ]
        },
        {
            "name" : "Kiehl's.000",
            "primitives" : [
                {
                    "attributes" : {
                        "POSITION" : 8,
                        "NORMAL" : 9,
                        "TEXCOORD_0" : 10
                    },
                    "indices" : 3,
                    "material" : 2
                },
                {
                    "attributes" : {
                        "POSITION" : 11,
                        "NORMAL" : 12,
                        "TEXCOORD_0" : 13
                    },
                    "indices" : 7,
                    "material" : 3
                }
            ]
        },
        {
            "name" : "Kiehl's.001",
            "primitives" : [
                {
                    "attributes" : {
                        "POSITION" : 14,
                        "NORMAL" : 15,
                        "TEXCOORD_0" : 16
                    },
                    "indices" : 3,
                    "material" : 4
                },
                {
                    "attributes" : {
                        "POSITION" : 17,
                        "NORMAL" : 18,
                        "TEXCOORD_0" : 19
                    },
                    "indices" : 7,
                    "material" : 5
                }
            ]
        }
    ],
    "textures" : [
        {
            "source" : 0
        },
        {
            "source" : 0
        },
        {
            "source" : 0
        }
    ],
    "images" : [
        {
            "mimeType" : "image/jpeg",
            "name" : "WechatIMG119",
            "uri" : "WechatIMG119.jpg"
        }
    ],
    "accessors" : [
        {
            "bufferView" : 0,
            "componentType" : 5126,
            "count" : 612,
            "max" : [
                -0.6036999821662903,
                0.8932999968528748,
                0
            ],
            "min" : [
                -3.391400098800659,
                -1.8944000005722046,
                -7.076099872589111
            ],
            "type" : "VEC3"
        },
        {
            "bufferView" : 1,
            "componentType" : 5126,
            "count" : 612,
            "type" : "VEC3"
        },
        {
            "bufferView" : 2,
            "componentType" : 5126,
            "count" : 612,
            "type" : "VEC2"
        },
        {
            "bufferView" : 3,
            "componentType" : 5123,
            "count" : 3072,
            "type" : "SCALAR"
        },
        {
            "bufferView" : 4,
            "componentType" : 5126,
            "count" : 2016,
            "max" : [
                -1.1033999919891357,
                0.390500009059906,
                -4.833399772644043
            ],
            "min" : [
                -2.885499954223633,
                -1.3916000127792358,
                -7.856900215148926
            ],
            "type" : "VEC3"
        },
        {
            "bufferView" : 5,
            "componentType" : 5126,
            "count" : 2016,
            "type" : "VEC3"
        },
        {
            "bufferView" : 6,
            "componentType" : 5126,
            "count" : 2016,
            "type" : "VEC2"
        },
        {
            "bufferView" : 7,
            "componentType" : 5123,
            "count" : 9888,
            "type" : "SCALAR"
        },
        {
            "bufferView" : 8,
            "componentType" : 5126,
            "count" : 612,
            "max" : [
                -0.6036999821662903,
                0.8932999968528748,
                0
            ],
            "min" : [
                -3.391400098800659,
                -1.8944000005722046,
                -7.076099872589111
            ],
            "type" : "VEC3"
        },
        {
            "bufferView" : 9,
            "componentType" : 5126,
            "count" : 612,
            "type" : "VEC3"
        },
        {
            "bufferView" : 10,
            "componentType" : 5126,
            "count" : 612,
            "type" : "VEC2"
        },
        {
            "bufferView" : 11,
            "componentType" : 5126,
            "count" : 2016,
            "max" : [
                -1.1033999919891357,
                0.390500009059906,
                -4.833399772644043
            ],
            "min" : [
                -2.885499954223633,
                -1.3916000127792358,
                -7.856900215148926
            ],
            "type" : "VEC3"
        },
        {
            "bufferView" : 12,
            "componentType" : 5126,
            "count" : 2016,
            "type" : "VEC3"
        },
        {
            "bufferView" : 13,
            "componentType" : 5126,
            "count" : 2016,
            "type" : "VEC2"
        },
        {
            "bufferView" : 14,
            "componentType" : 5126,
            "count" : 612,
            "max" : [
                -0.6036999821662903,
                0.8932999968528748,
                0
            ],
            "min" : [
                -3.391400098800659,
                -1.8944000005722046,
                -7.076099872589111
            ],
            "type" : "VEC3"
        },
        {
            "bufferView" : 15,
            "componentType" : 5126,
            "count" : 612,
            "type" : "VEC3"
        },
        {
            "bufferView" : 16,
            "componentType" : 5126,
            "count" : 612,
            "type" : "VEC2"
        },
        {
            "bufferView" : 17,
            "componentType" : 5126,
            "count" : 2016,
            "max" : [
                -1.1033999919891357,
                0.390500009059906,
                -4.833399772644043
            ],
            "min" : [
                -2.885499954223633,
                -1.3916000127792358,
                -7.856900215148926
            ],
            "type" : "VEC3"
        },
        {
            "bufferView" : 18,
            "componentType" : 5126,
            "count" : 2016,
            "type" : "VEC3"
        },
        {
            "bufferView" : 19,
            "componentType" : 5126,
            "count" : 2016,
            "type" : "VEC2"
        }
    ],
    "bufferViews" : [
        {
            "buffer" : 0,
            "byteLength" : 7344,
            "byteOffset" : 0
        },
        {
            "buffer" : 0,
            "byteLength" : 7344,
            "byteOffset" : 7344
        },
        {
            "buffer" : 0,
            "byteLength" : 4896,
            "byteOffset" : 14688
        },
        {
            "buffer" : 0,
            "byteLength" : 6144,
            "byteOffset" : 19584
        },
        {
            "buffer" : 0,
            "byteLength" : 24192,
            "byteOffset" : 25728
        },
        {
            "buffer" : 0,
            "byteLength" : 24192,
            "byteOffset" : 49920
        },
        {
            "buffer" : 0,
            "byteLength" : 16128,
            "byteOffset" : 74112
        },
        {
            "buffer" : 0,
            "byteLength" : 19776,
            "byteOffset" : 90240
        },
        {
            "buffer" : 0,
            "byteLength" : 7344,
            "byteOffset" : 110016
        },
        {
            "buffer" : 0,
            "byteLength" : 7344,
            "byteOffset" : 117360
        },
        {
            "buffer" : 0,
            "byteLength" : 4896,
            "byteOffset" : 124704
        },
        {
            "buffer" : 0,
            "byteLength" : 24192,
            "byteOffset" : 129600
        },
        {
            "buffer" : 0,
            "byteLength" : 24192,
            "byteOffset" : 153792
        },
        {
            "buffer" : 0,
            "byteLength" : 16128,
            "byteOffset" : 177984
        },
        {
            "buffer" : 0,
            "byteLength" : 7344,
            "byteOffset" : 194112
        },
        {
            "buffer" : 0,
            "byteLength" : 7344,
            "byteOffset" : 201456
        },
        {
            "buffer" : 0,
            "byteLength" : 4896,
            "byteOffset" : 208800
        },
        {
            "buffer" : 0,
            "byteLength" : 24192,
            "byteOffset" : 213696
        },
        {
            "buffer" : 0,
            "byteLength" : 24192,
            "byteOffset" : 237888
        },
        {
            "buffer" : 0,
            "byteLength" : 16128,
            "byteOffset" : 262080
        }
    ],
    "buffers" : [
        {
            "byteLength" : 278208,
            "uri" : "kiehls.bin"
        }
    ]
}
